<mxfile host="app.diagrams.net" agent="Mozilla/5.0 (Windows NT 10.0; Win64; x64) AppleWebKit/537.36 (KHTML, like Gecko) Chrome/128.0.0.0 YaBrowser/24.10.0.0 Safari/537.36" version="24.8.3">
  <diagram name="Страница — 1" id="VLSGsX3fWe6jfFy4OKIL">
    <mxGraphModel dx="2501" dy="783" grid="1" gridSize="10" guides="1" tooltips="1" connect="1" arrows="1" fold="1" page="1" pageScale="1" pageWidth="827" pageHeight="1169" math="0" shadow="0">
      <root>
        <mxCell id="0" />
        <mxCell id="1" parent="0" />
        <mxCell id="uFmxN6xGtftXsL2eB9kl-2" value="" style="rounded=0;whiteSpace=wrap;html=1;" parent="1" vertex="1">
          <mxGeometry x="80" y="30" width="710" height="60" as="geometry" />
        </mxCell>
        <mxCell id="uFmxN6xGtftXsL2eB9kl-3" value="Диаграмма процесса оформления заявки на командировку" style="text;html=1;align=center;verticalAlign=middle;whiteSpace=wrap;rounded=0;fontStyle=1;horizontal=1;fontSize=18;" parent="1" vertex="1">
          <mxGeometry x="130" y="45" width="650" height="30" as="geometry" />
        </mxCell>
        <mxCell id="wpBu9LiAd3_NSAH73SUk-11" value="" style="shape=actor;whiteSpace=wrap;html=1;" parent="1" vertex="1">
          <mxGeometry x="60" y="130" width="200" height="220" as="geometry" />
        </mxCell>
        <mxCell id="wpBu9LiAd3_NSAH73SUk-2" value="Сотрудник организации" style="text;html=1;align=center;verticalAlign=middle;whiteSpace=wrap;rounded=0;fontStyle=1;fontSize=14;" parent="1" vertex="1">
          <mxGeometry y="250" width="320" height="30" as="geometry" />
        </mxCell>
        <mxCell id="uFmxN6xGtftXsL2eB9kl-7" value="Оформление заявки&amp;nbsp;&lt;div&gt;на командировку&lt;/div&gt;" style="text;html=1;align=center;verticalAlign=middle;whiteSpace=wrap;rounded=0;" parent="1" vertex="1">
          <mxGeometry x="5" y="290" width="320" height="30" as="geometry" />
        </mxCell>
        <mxCell id="wpBu9LiAd3_NSAH73SUk-12" value="" style="shape=actor;whiteSpace=wrap;html=1;" parent="1" vertex="1">
          <mxGeometry x="60" y="410" width="200" height="220" as="geometry" />
        </mxCell>
        <mxCell id="wpBu9LiAd3_NSAH73SUk-9" value="Руководитель сотрудника&lt;div&gt;&lt;br&gt;&lt;/div&gt;" style="text;html=1;align=center;verticalAlign=middle;whiteSpace=wrap;rounded=0;fontStyle=1;fontSize=14;" parent="1" vertex="1">
          <mxGeometry y="535" width="320" height="30" as="geometry" />
        </mxCell>
        <mxCell id="wpBu9LiAd3_NSAH73SUk-6" value="Согласование&lt;div&gt;&amp;nbsp;заявки на командировку&lt;/div&gt;" style="text;html=1;align=center;verticalAlign=middle;whiteSpace=wrap;rounded=0;" parent="1" vertex="1">
          <mxGeometry x="-30" y="570" width="380" height="30" as="geometry" />
        </mxCell>
        <mxCell id="wpBu9LiAd3_NSAH73SUk-14" value="" style="shape=actor;whiteSpace=wrap;html=1;" parent="1" vertex="1">
          <mxGeometry x="800" y="130" width="200" height="220" as="geometry" />
        </mxCell>
        <mxCell id="wpBu9LiAd3_NSAH73SUk-4" value="Сотрудник отдела кадров" style="text;html=1;align=center;verticalAlign=middle;whiteSpace=wrap;rounded=0;fontStyle=1;fontSize=14;" parent="1" vertex="1">
          <mxGeometry x="730" y="235" width="320" height="30" as="geometry" />
        </mxCell>
        <mxCell id="uFmxN6xGtftXsL2eB9kl-8" value="Оформление приказа&amp;nbsp;&lt;div&gt;на командировку&lt;/div&gt;" style="text;html=1;align=center;verticalAlign=middle;whiteSpace=wrap;rounded=0;" parent="1" vertex="1">
          <mxGeometry x="750" y="295" width="320" height="30" as="geometry" />
        </mxCell>
        <mxCell id="wpBu9LiAd3_NSAH73SUk-15" value="" style="shape=actor;whiteSpace=wrap;html=1;" parent="1" vertex="1">
          <mxGeometry x="60" y="700" width="200" height="220" as="geometry" />
        </mxCell>
        <mxCell id="wpBu9LiAd3_NSAH73SUk-8" value="Согласование&amp;nbsp;&lt;span style=&quot;background-color: initial;&quot;&gt;&amp;nbsp;заявки&amp;nbsp;&lt;/span&gt;&lt;div&gt;&lt;span style=&quot;background-color: initial;&quot;&gt;на командировку&lt;/span&gt;&lt;div&gt;&lt;span style=&quot;background-color: initial;&quot;&gt;Указание статьи расходов&amp;nbsp;&lt;/span&gt;&lt;/div&gt;&lt;div&gt;&lt;span style=&quot;background-color: initial;&quot;&gt;и направления деятельности&lt;/span&gt;&lt;/div&gt;&lt;div&gt;&lt;span style=&quot;background-color: initial;&quot;&gt;&lt;br&gt;&lt;/span&gt;&lt;/div&gt;&lt;/div&gt;" style="text;html=1;align=center;verticalAlign=middle;whiteSpace=wrap;rounded=0;" parent="1" vertex="1">
          <mxGeometry x="-70" y="870" width="470" height="30" as="geometry" />
        </mxCell>
        <mxCell id="wpBu9LiAd3_NSAH73SUk-7" value="Сотрудник&amp;nbsp;&lt;div&gt;финансового отдела&lt;div&gt;&lt;br&gt;&lt;/div&gt;&lt;/div&gt;" style="text;html=1;align=center;verticalAlign=middle;whiteSpace=wrap;rounded=0;fontStyle=1;fontSize=14;" parent="1" vertex="1">
          <mxGeometry x="5" y="810" width="320" height="30" as="geometry" />
        </mxCell>
        <mxCell id="wpBu9LiAd3_NSAH73SUk-16" value="" style="shape=actor;whiteSpace=wrap;html=1;" parent="1" vertex="1">
          <mxGeometry x="1180" y="140" width="200" height="220" as="geometry" />
        </mxCell>
        <mxCell id="wpBu9LiAd3_NSAH73SUk-17" value="Сотрудник отдела&amp;nbsp;&lt;div&gt;бухгалтерии&lt;div&gt;&lt;br&gt;&lt;/div&gt;&lt;/div&gt;" style="text;html=1;align=center;verticalAlign=middle;whiteSpace=wrap;rounded=0;fontStyle=1;fontSize=14;" parent="1" vertex="1">
          <mxGeometry x="1120" y="260" width="320" height="30" as="geometry" />
        </mxCell>
        <mxCell id="wpBu9LiAd3_NSAH73SUk-18" value="Начисление командировочных&amp;nbsp;&lt;div&gt;расходов,&lt;br&gt;&lt;div&gt;списание затрат&lt;/div&gt;&lt;div&gt;&lt;br&gt;&lt;/div&gt;&lt;/div&gt;" style="text;html=1;align=center;verticalAlign=middle;whiteSpace=wrap;rounded=0;" parent="1" vertex="1">
          <mxGeometry x="1090" y="310" width="380" height="30" as="geometry" />
        </mxCell>
        <mxCell id="wpBu9LiAd3_NSAH73SUk-19" value="1С: ЗУП" style="swimlane;" parent="1" vertex="1">
          <mxGeometry x="780" y="510" width="260" height="110" as="geometry" />
        </mxCell>
        <mxCell id="wpBu9LiAd3_NSAH73SUk-20" value="&lt;div&gt;&lt;div&gt;Кадровый учет&amp;nbsp;&lt;/div&gt;&lt;div&gt;и начисление зарплаты&lt;/div&gt;&lt;/div&gt;" style="text;html=1;align=center;verticalAlign=middle;whiteSpace=wrap;rounded=0;" parent="wpBu9LiAd3_NSAH73SUk-19" vertex="1">
          <mxGeometry x="-60" y="60" width="320" height="30" as="geometry" />
        </mxCell>
        <mxCell id="wpBu9LiAd3_NSAH73SUk-21" value="Система документооборота" style="swimlane;" parent="1" vertex="1">
          <mxGeometry x="360" y="510" width="290" height="110" as="geometry" />
        </mxCell>
        <mxCell id="wpBu9LiAd3_NSAH73SUk-22" value="&lt;div&gt;&lt;div&gt;Формирование и согласование&amp;nbsp;&lt;/div&gt;&lt;div&gt;заявок на командировку&lt;/div&gt;&lt;/div&gt;&lt;div&gt;&lt;br&gt;&lt;/div&gt;" style="text;html=1;align=center;verticalAlign=middle;whiteSpace=wrap;rounded=0;" parent="wpBu9LiAd3_NSAH73SUk-21" vertex="1">
          <mxGeometry x="-30" y="50" width="380" height="30" as="geometry" />
        </mxCell>
        <mxCell id="wpBu9LiAd3_NSAH73SUk-28" value="1С: КА" style="swimlane;" parent="1" vertex="1">
          <mxGeometry x="1140" y="510" width="260" height="110" as="geometry" />
        </mxCell>
        <mxCell id="wpBu9LiAd3_NSAH73SUk-29" value="&lt;div&gt;Система управления и&amp;nbsp; учета&lt;/div&gt;" style="text;html=1;align=center;verticalAlign=middle;whiteSpace=wrap;rounded=0;" parent="wpBu9LiAd3_NSAH73SUk-28" vertex="1">
          <mxGeometry x="-30" y="50" width="320" height="30" as="geometry" />
        </mxCell>
        <mxCell id="wpBu9LiAd3_NSAH73SUk-41" value="" style="endArrow=classic;html=1;rounded=0;exitX=1;exitY=0.682;exitDx=0;exitDy=0;exitPerimeter=0;entryX=0.559;entryY=-0.009;entryDx=0;entryDy=0;entryPerimeter=0;" parent="1" target="wpBu9LiAd3_NSAH73SUk-21" edge="1">
          <mxGeometry relative="1" as="geometry">
            <mxPoint x="260" y="289.99999999999994" as="sourcePoint" />
            <mxPoint x="770" y="519.96" as="targetPoint" />
            <Array as="points">
              <mxPoint x="520" y="290" />
            </Array>
          </mxGeometry>
        </mxCell>
        <mxCell id="wpBu9LiAd3_NSAH73SUk-47" value="" style="endArrow=classic;html=1;rounded=0;exitX=0.806;exitY=1.267;exitDx=0;exitDy=0;exitPerimeter=0;" parent="1" source="wpBu9LiAd3_NSAH73SUk-9" edge="1">
          <mxGeometry width="50" height="50" relative="1" as="geometry">
            <mxPoint x="690" y="530" as="sourcePoint" />
            <mxPoint x="360" y="573" as="targetPoint" />
          </mxGeometry>
        </mxCell>
        <mxCell id="wpBu9LiAd3_NSAH73SUk-48" value="" style="endArrow=classic;html=1;rounded=0;exitX=1;exitY=0.75;exitDx=0;exitDy=0;" parent="1" source="wpBu9LiAd3_NSAH73SUk-15" edge="1">
          <mxGeometry width="50" height="50" relative="1" as="geometry">
            <mxPoint x="690" y="530" as="sourcePoint" />
            <mxPoint x="520" y="620" as="targetPoint" />
            <Array as="points">
              <mxPoint x="520" y="860" />
            </Array>
          </mxGeometry>
        </mxCell>
        <mxCell id="wpBu9LiAd3_NSAH73SUk-49" value="" style="endArrow=classic;html=1;rounded=0;exitX=0.845;exitY=0.3;exitDx=0;exitDy=0;exitPerimeter=0;entryX=0.184;entryY=-0.067;entryDx=0;entryDy=0;entryPerimeter=0;" parent="1" source="wpBu9LiAd3_NSAH73SUk-22" target="wpBu9LiAd3_NSAH73SUk-20" edge="1">
          <mxGeometry width="50" height="50" relative="1" as="geometry">
            <mxPoint x="800" y="430" as="sourcePoint" />
            <mxPoint x="850" y="380" as="targetPoint" />
          </mxGeometry>
        </mxCell>
        <mxCell id="wpBu9LiAd3_NSAH73SUk-50" value="" style="endArrow=classic;html=1;rounded=0;exitX=0.54;exitY=1.014;exitDx=0;exitDy=0;exitPerimeter=0;entryX=0.5;entryY=0;entryDx=0;entryDy=0;" parent="1" source="wpBu9LiAd3_NSAH73SUk-14" target="wpBu9LiAd3_NSAH73SUk-19" edge="1">
          <mxGeometry width="50" height="50" relative="1" as="geometry">
            <mxPoint x="800" y="430" as="sourcePoint" />
            <mxPoint x="850" y="380" as="targetPoint" />
          </mxGeometry>
        </mxCell>
        <mxCell id="wpBu9LiAd3_NSAH73SUk-51" value="" style="endArrow=classic;html=1;rounded=0;entryX=0.535;entryY=0.073;entryDx=0;entryDy=0;entryPerimeter=0;" parent="1" edge="1" target="wpBu9LiAd3_NSAH73SUk-28">
          <mxGeometry width="50" height="50" relative="1" as="geometry">
            <mxPoint x="1279" y="360" as="sourcePoint" />
            <mxPoint x="920" y="620" as="targetPoint" />
          </mxGeometry>
        </mxCell>
        <mxCell id="wpBu9LiAd3_NSAH73SUk-53" value="" style="endArrow=classic;html=1;rounded=0;exitX=1;exitY=0.25;exitDx=0;exitDy=0;entryX=0.094;entryY=0.583;entryDx=0;entryDy=0;entryPerimeter=0;" parent="1" source="wpBu9LiAd3_NSAH73SUk-20" target="wpBu9LiAd3_NSAH73SUk-29" edge="1">
          <mxGeometry width="50" height="50" relative="1" as="geometry">
            <mxPoint x="800" y="630" as="sourcePoint" />
            <mxPoint x="850" y="580" as="targetPoint" />
          </mxGeometry>
        </mxCell>
        <mxCell id="wpBu9LiAd3_NSAH73SUk-56" value="" style="endArrow=classic;html=1;rounded=0;exitX=0.5;exitY=1;exitDx=0;exitDy=0;" parent="1" source="wpBu9LiAd3_NSAH73SUk-15" edge="1">
          <mxGeometry width="50" height="50" relative="1" as="geometry">
            <mxPoint x="800" y="760" as="sourcePoint" />
            <mxPoint x="1280" y="620" as="targetPoint" />
            <Array as="points">
              <mxPoint x="160" y="1000" />
              <mxPoint x="1280" y="1000" />
            </Array>
          </mxGeometry>
        </mxCell>
        <mxCell id="wpBu9LiAd3_NSAH73SUk-57" value="Формирование заявки&lt;div&gt;&lt;br&gt;&lt;/div&gt;" style="text;html=1;align=center;verticalAlign=middle;whiteSpace=wrap;rounded=0;" parent="1" vertex="1">
          <mxGeometry x="275" y="265" width="320" height="30" as="geometry" />
        </mxCell>
        <mxCell id="wpBu9LiAd3_NSAH73SUk-58" value="Согласование&lt;div&gt;&lt;br&gt;&lt;/div&gt;&lt;div&gt;&amp;nbsp;заявки&lt;div&gt;&lt;br&gt;&lt;/div&gt;&lt;/div&gt;" style="text;html=1;align=center;verticalAlign=middle;whiteSpace=wrap;rounded=0;" parent="1" vertex="1">
          <mxGeometry x="140" y="565" width="320" height="30" as="geometry" />
        </mxCell>
        <mxCell id="wpBu9LiAd3_NSAH73SUk-59" value="Заполнение аналитики&lt;div&gt;&lt;br&gt;&lt;div&gt;&lt;br&gt;&lt;/div&gt;&lt;/div&gt;" style="text;html=1;align=center;verticalAlign=middle;whiteSpace=wrap;rounded=0;" parent="1" vertex="1">
          <mxGeometry x="220" y="840" width="320" height="30" as="geometry" />
        </mxCell>
        <mxCell id="wpBu9LiAd3_NSAH73SUk-60" value="Синхронизация&lt;div&gt;&lt;br&gt;&lt;/div&gt;&lt;div&gt;&lt;br&gt;&lt;/div&gt;" style="text;html=1;align=center;verticalAlign=middle;whiteSpace=wrap;rounded=0;" parent="1" vertex="1">
          <mxGeometry x="650" y="550" width="140" height="30" as="geometry" />
        </mxCell>
        <mxCell id="wpBu9LiAd3_NSAH73SUk-62" value="Синхронизация&lt;div&gt;&lt;br&gt;&lt;/div&gt;&lt;div&gt;&lt;br&gt;&lt;/div&gt;" style="text;html=1;align=center;verticalAlign=middle;whiteSpace=wrap;rounded=0;" parent="1" vertex="1">
          <mxGeometry x="1020" y="555" width="140" height="30" as="geometry" />
        </mxCell>
        <mxCell id="wpBu9LiAd3_NSAH73SUk-66" value="Оформление приказа на командировку&lt;div&gt;&lt;br&gt;&lt;/div&gt;" style="text;html=1;align=center;verticalAlign=middle;whiteSpace=wrap;rounded=0;" parent="1" vertex="1">
          <mxGeometry x="827" y="400" width="60" height="30" as="geometry" />
        </mxCell>
        <mxCell id="wpBu9LiAd3_NSAH73SUk-68" value="&lt;div&gt;Начисление командировочных,&lt;/div&gt;&lt;div&gt;отражение расходов&lt;/div&gt;&lt;div&gt;&lt;br&gt;&lt;/div&gt;" style="text;html=1;align=center;verticalAlign=middle;whiteSpace=wrap;rounded=0;" parent="1" vertex="1">
          <mxGeometry x="1310" y="400" width="60" height="30" as="geometry" />
        </mxCell>
      </root>
    </mxGraphModel>
  </diagram>
</mxfile>
